<?xml version="1.0" encoding="UTF-8" standalone="no"?>
<!-- Created with Inkscape (http://www.inkscape.org/) -->

<svg
   xmlns:dc="http://purl.org/dc/elements/1.1/"
   xmlns:cc="http://creativecommons.org/ns#"
   xmlns:rdf="http://www.w3.org/1999/02/22-rdf-syntax-ns#"
   xmlns:svg="http://www.w3.org/2000/svg"
   xmlns="http://www.w3.org/2000/svg"
   xmlns:sodipodi="http://sodipodi.sourceforge.net/DTD/sodipodi-0.dtd"
   xmlns:inkscape="http://www.inkscape.org/namespaces/inkscape"
   width="210mm"
   height="297mm"
   viewBox="0 0 210 297"
   version="1.1"
   id="svg8"
   inkscape:version="0.92.1 r15371"
   sodipodi:docname="face.svg">
  <defs
     id="defs2" />
  <sodipodi:namedview
     id="base"
     pagecolor="#ffffff"
     bordercolor="#666666"
     borderopacity="1.0"
     inkscape:pageopacity="0.0"
     inkscape:pageshadow="2"
     inkscape:zoom="0.35"
     inkscape:cx="1558.8344"
     inkscape:cy="431.89309"
     inkscape:document-units="mm"
     inkscape:current-layer="g8571"
     showgrid="false"
     inkscape:window-width="1920"
     inkscape:window-height="1001"
     inkscape:window-x="-9"
     inkscape:window-y="-9"
     inkscape:window-maximized="1"
     inkscape:measure-start="1282.86,890"
     inkscape:measure-end="1282.86,761.429" />
  <metadata
     id="metadata5">
    <rdf:RDF>
      <cc:Work
         rdf:about="">
        <dc:format>image/svg+xml</dc:format>
        <dc:type
           rdf:resource="http://purl.org/dc/dcmitype/StillImage" />
        <dc:title></dc:title>
      </cc:Work>
    </rdf:RDF>
  </metadata>
  <g
     inkscape:label="Calque 1"
     inkscape:groupmode="layer"
     id="layer1">
    <g
       id="g8563"
       transform="translate(238.13546,-35.802165)">
      <g
         id="g8608"
         transform="translate(0,-3.1750024)">
        <rect
           style="opacity:1;fill:none;fill-opacity:1;stroke:#ff0000;stroke-width:0.25400001;stroke-miterlimit:4;stroke-dasharray:none;stroke-opacity:1"
           id="rect8417"
           width="70"
           height="70"
           x="65.126999"
           y="120.4789" />
        <rect
           style="opacity:1;fill:none;fill-opacity:1;stroke:#ff0000;stroke-width:0.254;stroke-miterlimit:4;stroke-dasharray:none;stroke-opacity:1"
           id="rect8417-4"
           width="150"
           height="80"
           x="25.324989"
           y="24.172323" />
        <text
           xml:space="preserve"
           style="font-style:normal;font-variant:normal;font-weight:bold;font-stretch:normal;font-size:25.39999962px;line-height:125%;font-family:'Courier New';-inkscape-font-specification:'Courier New Bold';letter-spacing:0px;word-spacing:0px;fill:#000000;fill-opacity:1;stroke:none;stroke-width:0.26458332px;stroke-linecap:butt;stroke-linejoin:miter;stroke-opacity:1"
           x="92.499557"
           y="228.64807"
           id="text8436"><tspan
             sodipodi:role="line"
             id="tspan8434"
             x="92.499557"
             y="228.64807"
             style="font-style:normal;font-variant:normal;font-weight:bold;font-stretch:normal;font-family:'Courier New';-inkscape-font-specification:'Courier New Bold';stroke-width:0.26458332px">À</tspan></text>
        <g
           transform="translate(0,21.167366)"
           id="g8571">
          <rect
             y="224.76479"
             x="25.398151"
             height="29.891537"
             width="29.891537"
             id="rect8417-7"
             style="opacity:1;fill:none;fill-opacity:1;stroke:#ff0000;stroke-width:0.25400001;stroke-miterlimit:4;stroke-dasharray:none;stroke-opacity:1" />
          <rect
             y="224.76479"
             x="55.289688"
             height="29.891539"
             width="29.891539"
             id="rect8417-7-3"
             style="opacity:1;fill:none;fill-opacity:1;stroke:#ff0000;stroke-width:0.25400001;stroke-miterlimit:4;stroke-dasharray:none;stroke-opacity:1" />
          <rect
             y="224.76479"
             x="115.07277"
             height="29.891539"
             width="29.891539"
             id="rect8417-7-1"
             style="opacity:1;fill:none;fill-opacity:1;stroke:#ff0000;stroke-width:0.25400001;stroke-miterlimit:4;stroke-dasharray:none;stroke-opacity:1" />
          <rect
             y="224.76479"
             x="144.96431"
             height="29.891539"
             width="29.891539"
             id="rect8417-7-6"
             style="opacity:1;fill:none;fill-opacity:1;stroke:#ff0000;stroke-width:0.25400001;stroke-miterlimit:4;stroke-dasharray:none;stroke-opacity:1" />
          <text
             id="text8436-6"
             y="247.75348"
             x="92.549164"
             style="font-style:normal;font-variant:normal;font-weight:bold;font-stretch:normal;font-size:25.39999962px;line-height:125%;font-family:'Courier New';-inkscape-font-specification:'Courier New Bold';letter-spacing:0px;word-spacing:0px;fill:#000000;fill-opacity:1;stroke:none;stroke-width:0.26458332px;stroke-linecap:butt;stroke-linejoin:miter;stroke-opacity:1"
             xml:space="preserve"><tspan
               style="font-style:normal;font-variant:normal;font-weight:bold;font-stretch:normal;font-family:'Courier New';-inkscape-font-specification:'Courier New Bold';stroke-width:0.26458332px"
               y="247.75348"
               x="92.549164"
               id="tspan8434-7"
               sodipodi:role="line">h</tspan></text>
        </g>
      </g>
      <g
         id="g4"
         transform="matrix(0.28222199,0,0,0.28222199,0.127,-3.2269911)">
        <polygon
           id="polygon2"
           points="269.29156,0 326.33885,0 326.33885,17.71655 382.67748,17.71655 382.67748,0 439.72477,0 439.72477,17.71655 496.0634,17.71655 496.0634,0 553.11069,0 553.11069,17.71655 630.70918,17.71655 630.70918,0 709.01633,0 709.01633,81.850461 691.29978,81.850461 691.29978,162.99226 709.01633,162.99226 709.01633,220.03955 691.29978,220.03955 691.29978,276.37818 709.01633,276.37818 709.01633,333.42547 691.29978,333.42547 691.29978,389.7641 709.01633,389.7641 709.01633,446.81139 691.29978,446.81139 691.29978,503.15002 709.01633,503.15002 709.01633,560.19731 691.29978,560.19731 691.29978,616.53594 709.01633,616.53594 709.01633,673.58323 691.29978,673.58323 691.29978,729.92186 709.01633,729.92186 709.01633,786.96915 691.29978,786.96915 691.29978,843.30778 709.01633,843.30778 709.01633,900.35507 691.29978,900.35507 691.29978,981.49687 709.01633,981.49687 709.01633,1063.3473 630.70918,1063.3473 630.70918,1045.6308 553.11069,1045.6308 553.11069,1063.3473 496.0634,1063.3473 496.0634,1045.6308 439.72477,1045.6308 439.72477,1063.3473 382.67748,1063.3473 382.67748,1045.6308 326.33885,1045.6308 326.33885,1063.3473 269.29156,1063.3473 269.29156,1045.6308 212.95293,1045.6308 212.95293,1063.3473 155.90564,1063.3473 155.90564,1045.6308 78.307151,1045.6308 78.307151,1063.3473 0,1063.3473 0,981.49687 17.71655,981.49687 17.71655,900.35507 0,900.35507 0,843.30778 17.71655,843.30778 17.71655,786.96915 0,786.96915 0,729.92186 17.71655,729.92186 17.71655,673.58323 0,673.58323 0,616.53594 17.71655,616.53594 17.71655,560.19731 0,560.19731 0,503.15002 17.71655,503.15002 17.71655,446.81139 0,446.81139 0,389.7641 17.71655,389.7641 17.71655,333.42547 0,333.42547 0,276.37818 17.71655,276.37818 17.71655,220.03955 0,220.03955 0,162.99226 17.71655,162.99226 17.71655,81.850461 0,81.850461 0,0 78.307151,0 78.307151,17.71655 155.90564,17.71655 155.90564,0 212.95293,0 212.95293,17.71655 269.29156,17.71655 "
           style="fill:none;stroke:#ff0000;stroke-width:0.90000075" />
      </g>
    </g>
    <g
       transform="matrix(0.28222199,0,0,0.28222199,438.36246,-39.029156)"
       id="g8">
      <polygon
         style="fill:none;stroke:#ff0000;stroke-width:0.90000075"
         points="212.95293,0 212.95293,17.71655 269.29156,17.71655 269.29156,0 326.33885,0 326.33885,17.71655 382.67748,17.71655 382.67748,0 439.72477,0 439.72477,17.71655 496.0634,17.71655 496.0634,0 553.11069,0 553.11069,17.71655 630.70918,17.71655 630.70918,0 709.01633,0 709.01633,81.850461 691.29978,81.850461 691.29978,162.99226 709.01633,162.99226 709.01633,220.03955 691.29978,220.03955 691.29978,276.37818 709.01633,276.37818 709.01633,333.42547 691.29978,333.42547 691.29978,389.7641 709.01633,389.7641 709.01633,446.81139 691.29978,446.81139 691.29978,503.15002 709.01633,503.15002 709.01633,560.19731 691.29978,560.19731 691.29978,616.53594 709.01633,616.53594 709.01633,673.58323 691.29978,673.58323 691.29978,729.92186 709.01633,729.92186 709.01633,786.96915 691.29978,786.96915 691.29978,843.30778 709.01633,843.30778 709.01633,900.35507 691.29978,900.35507 691.29978,981.49687 709.01633,981.49687 709.01633,1063.3473 630.70918,1063.3473 630.70918,1045.6308 553.11069,1045.6308 553.11069,1063.3473 496.0634,1063.3473 496.0634,1045.6308 439.72477,1045.6308 439.72477,1063.3473 382.67748,1063.3473 382.67748,1045.6308 326.33885,1045.6308 326.33885,1063.3473 269.29156,1063.3473 269.29156,1045.6308 212.95293,1045.6308 212.95293,1063.3473 155.90564,1063.3473 155.90564,1045.6308 78.307151,1045.6308 78.307151,1063.3473 0,1063.3473 0,981.49687 17.71655,981.49687 17.71655,900.35507 0,900.35507 0,843.30778 17.71655,843.30778 17.71655,786.96915 0,786.96915 0,729.92186 17.71655,729.92186 17.71655,673.58323 0,673.58323 0,616.53594 17.71655,616.53594 17.71655,560.19731 0,560.19731 0,503.15002 17.71655,503.15002 17.71655,446.81139 0,446.81139 0,389.7641 17.71655,389.7641 17.71655,333.42547 0,333.42547 0,276.37818 17.71655,276.37818 17.71655,220.03955 0,220.03955 0,162.99226 17.71655,162.99226 17.71655,81.850461 0,81.850461 0,0 78.307151,0 78.307151,17.71655 155.90564,17.71655 155.90564,0 "
         id="polygon6" />
    </g>
    <g
       transform="matrix(0.28222199,0,0,0.28222199,638.46245,-39.029156)"
       id="g12">
      <polygon
         style="fill:none;stroke:#ff0000;stroke-width:0.90000075"
         points="170.43321,0 170.43321,17.71655 226.77184,17.71655 226.77184,0 266.10258,0 266.10258,81.49613 283.81913,81.49613 283.81913,163.34659 266.10258,163.34659 266.10258,219.68522 283.81913,219.68522 283.81913,276.73251 266.10258,276.73251 266.10258,333.07114 283.81913,333.07114 283.81913,390.11843 266.10258,390.11843 266.10258,446.45706 283.81913,446.45706 283.81913,503.50435 266.10258,503.50435 266.10258,559.84298 283.81913,559.84298 283.81913,616.89027 266.10258,616.89027 266.10258,673.2289 283.81913,673.2289 283.81913,730.27619 266.10258,730.27619 266.10258,786.61482 283.81913,786.61482 283.81913,843.66211 266.10258,843.66211 266.10258,900.00074 283.81913,900.00074 283.81913,981.8512 266.10258,981.8512 266.10258,1063.3473 226.77184,1063.3473 226.77184,1045.6308 170.43321,1045.6308 170.43321,1063.3473 113.38592,1063.3473 113.38592,1045.6308 57.047291,1045.6308 57.047291,1063.3473 17.71655,1063.3473 17.71655,981.8512 0,981.8512 0,900.00074 17.71655,900.00074 17.71655,843.66211 0,843.66211 0,786.61482 17.71655,786.61482 17.71655,730.27619 0,730.27619 0,673.2289 17.71655,673.2289 17.71655,616.89027 0,616.89027 0,559.84298 17.71655,559.84298 17.71655,503.50435 0,503.50435 0,446.45706 17.71655,446.45706 17.71655,390.11843 0,390.11843 0,333.07114 17.71655,333.07114 17.71655,276.73251 0,276.73251 0,219.68522 17.71655,219.68522 17.71655,163.34659 0,163.34659 0,81.49613 17.71655,81.49613 17.71655,0 57.047291,0 57.047291,17.71655 113.38592,17.71655 113.38592,0 "
         id="polygon10" />
    </g>
    <g
       transform="matrix(0.28222199,0,0,0.28222199,238.26246,261.07083)"
       id="g20">
      <polygon
         style="fill:none;stroke:#ff0000;stroke-width:0.90000075"
         points="212.5986,17.71655 212.5986,0 269.64589,0 269.64589,17.71655 325.98452,17.71655 325.98452,0 383.03181,0 383.03181,17.71655 439.37044,17.71655 439.37044,0 496.41773,0 496.41773,17.71655 552.75636,17.71655 552.75636,0 631.06351,0 631.06351,17.71655 691.29978,17.71655 691.29978,56.69296 709.01633,56.69296 709.01633,113.74025 691.29978,113.74025 691.29978,170.07888 709.01633,170.07888 709.01633,227.12617 691.29978,227.12617 691.29978,266.10258 631.06351,266.10258 631.06351,283.81913 552.75636,283.81913 552.75636,266.10258 496.41773,266.10258 496.41773,283.81913 439.37044,283.81913 439.37044,266.10258 383.03181,266.10258 383.03181,283.81913 325.98452,283.81913 325.98452,266.10258 269.64589,266.10258 269.64589,283.81913 212.5986,283.81913 212.5986,266.10258 156.25997,266.10258 156.25997,283.81913 77.95282,283.81913 77.95282,266.10258 17.71655,266.10258 17.71655,227.12617 0,227.12617 0,170.07888 17.71655,170.07888 17.71655,113.74025 0,113.74025 0,56.69296 17.71655,56.69296 17.71655,17.71655 77.95282,17.71655 77.95282,0 156.25997,0 156.25997,17.71655 "
         id="polygon18" />
    </g>
    <g
       transform="matrix(0.28222199,0,0,0.28222199,438.36246,261.07083)"
       id="g24">
      <polygon
         style="fill:none;stroke:#ff0000;stroke-width:0.90000075"
         points="212.5986,17.71655 212.5986,0 269.64589,0 269.64589,17.71655 325.98452,17.71655 325.98452,0 383.03181,0 383.03181,17.71655 439.37044,17.71655 439.37044,0 496.41773,0 496.41773,17.71655 552.75636,17.71655 552.75636,0 631.06351,0 631.06351,17.71655 691.29978,17.71655 691.29978,56.69296 709.01633,56.69296 709.01633,113.74025 691.29978,113.74025 691.29978,170.07888 709.01633,170.07888 709.01633,227.12617 691.29978,227.12617 691.29978,266.10258 631.06351,266.10258 631.06351,283.81913 552.75636,283.81913 552.75636,266.10258 496.41773,266.10258 496.41773,283.81913 439.37044,283.81913 439.37044,266.10258 383.03181,266.10258 383.03181,283.81913 325.98452,283.81913 325.98452,266.10258 269.64589,266.10258 269.64589,283.81913 212.5986,283.81913 212.5986,266.10258 156.25997,266.10258 156.25997,283.81913 77.95282,283.81913 77.95282,266.10258 17.71655,266.10258 17.71655,227.12617 0,227.12617 0,170.07888 17.71655,170.07888 17.71655,113.74025 0,113.74025 0,56.69296 17.71655,56.69296 17.71655,17.71655 77.95282,17.71655 77.95282,0 156.25997,0 156.25997,17.71655 "
         id="polygon22" />
    </g>
    <g
       id="g8543"
       transform="matrix(0.28222199,0,0,0.28222199,718.56245,-39.029156)">
      <polygon
         id="polygon8541"
         points="170.43321,17.71655 226.77184,17.71655 226.77184,0 266.10258,0 266.10258,81.49613 283.81913,81.49613 283.81913,163.34659 266.10258,163.34659 266.10258,219.68522 283.81913,219.68522 283.81913,276.73251 266.10258,276.73251 266.10258,333.07114 283.81913,333.07114 283.81913,390.11843 266.10258,390.11843 266.10258,446.45706 283.81913,446.45706 283.81913,503.50435 266.10258,503.50435 266.10258,559.84298 283.81913,559.84298 283.81913,616.89027 266.10258,616.89027 266.10258,673.2289 283.81913,673.2289 283.81913,730.27619 266.10258,730.27619 266.10258,786.61482 283.81913,786.61482 283.81913,843.66211 266.10258,843.66211 266.10258,900.00074 283.81913,900.00074 283.81913,981.8512 266.10258,981.8512 266.10258,1063.3473 226.77184,1063.3473 226.77184,1045.6308 170.43321,1045.6308 170.43321,1063.3473 113.38592,1063.3473 113.38592,1045.6308 57.047291,1045.6308 57.047291,1063.3473 17.71655,1063.3473 17.71655,981.8512 0,981.8512 0,900.00074 17.71655,900.00074 17.71655,843.66211 0,843.66211 0,786.61482 17.71655,786.61482 17.71655,730.27619 0,730.27619 0,673.2289 17.71655,673.2289 17.71655,616.89027 0,616.89027 0,559.84298 17.71655,559.84298 17.71655,503.50435 0,503.50435 0,446.45706 17.71655,446.45706 17.71655,390.11843 0,390.11843 0,333.07114 17.71655,333.07114 17.71655,276.73251 0,276.73251 0,219.68522 17.71655,219.68522 17.71655,163.34659 0,163.34659 0,81.49613 17.71655,81.49613 17.71655,0 57.047291,0 57.047291,17.71655 113.38592,17.71655 113.38592,0 170.43321,0 "
         style="fill:none;stroke:#ff0000;stroke-width:0.90000075" />
    </g>
  </g>
</svg>
