<?xml version="1.0" encoding="UTF-8" standalone="no"?>
<svg
   xmlns:dc="http://purl.org/dc/elements/1.1/"
   xmlns:cc="http://creativecommons.org/ns#"
   xmlns:rdf="http://www.w3.org/1999/02/22-rdf-syntax-ns#"
   xmlns:svg="http://www.w3.org/2000/svg"
   xmlns="http://www.w3.org/2000/svg"
   xmlns:sodipodi="http://sodipodi.sourceforge.net/DTD/sodipodi-0.dtd"
   xmlns:inkscape="http://www.inkscape.org/namespaces/inkscape"
   version="1.1"
   width="392.7mm"
   height="172.7mm"
   viewBox=" 0 0 1391.457837 611.929637"
   id="svg26"
   sodipodi:docname="boxfermeouvert.svg"
   inkscape:version="0.92.0 r15299">
  <metadata
     id="metadata32">
    <rdf:RDF>
      <cc:Work
         rdf:about="">
        <dc:format>image/svg+xml</dc:format>
        <dc:type
           rdf:resource="http://purl.org/dc/dcmitype/StillImage" />
      </cc:Work>
    </rdf:RDF>
  </metadata>
  <defs
     id="defs30" />
  <sodipodi:namedview
     pagecolor="#ffffff"
     bordercolor="#666666"
     borderopacity="1"
     objecttolerance="10"
     gridtolerance="10"
     guidetolerance="10"
     inkscape:pageopacity="0"
     inkscape:pageshadow="2"
     inkscape:window-width="1920"
     inkscape:window-height="1018"
     id="namedview28"
     showgrid="false"
     inkscape:zoom="0.42305763"
     inkscape:cx="265.58736"
     inkscape:cy="256.57744"
     inkscape:window-x="-8"
     inkscape:window-y="-8"
     inkscape:window-maximized="1"
     inkscape:current-layer="layer1" />
  <!-- Front-->
  <!-- Back-->
  <!-- Left-->
  <!-- Right-->
  <!-- Top-->
  <!-- Bottom-->
  <g
     inkscape:groupmode="layer"
     id="layer1"
     inkscape:label="Box"
     style="display:inline">
    <g
       transform="translate(18.067995,11.419959)"
       id="g4">
      <polygon
         style="fill:none;stroke:#ff0000;stroke-width:0.90000075"
         points="106.2993,17.71655 106.2993,0 141.7324,0 141.7324,17.71655 177.1655,17.71655 177.1655,0 212.5986,0 212.5986,17.71655 248.0317,17.71655 248.0317,0 283.4648,0 283.4648,17.71655 318.8979,17.71655 318.8979,0 354.331,0 354.331,17.71655 389.7641,17.71655 389.7641,0 425.1972,0 425.1972,17.71655 478.34685,17.71655 478.34685,0 531.4965,0 531.4965,44.291375 513.77995,44.291375 513.77995,88.58275 531.4965,88.58275 531.4965,124.01585 513.77995,124.01585 513.77995,159.44895 531.4965,159.44895 531.4965,194.88205 513.77995,194.88205 513.77995,239.17342 531.4965,239.17342 531.4965,283.4648 478.34685,283.4648 478.34685,265.74825 425.1972,265.74825 425.1972,283.4648 389.7641,283.4648 389.7641,265.74825 354.331,265.74825 354.331,283.4648 318.8979,283.4648 318.8979,265.74825 283.4648,265.74825 283.4648,283.4648 248.0317,283.4648 248.0317,265.74825 212.5986,265.74825 212.5986,283.4648 177.1655,283.4648 177.1655,265.74825 141.7324,265.74825 141.7324,283.4648 106.2993,283.4648 106.2993,265.74825 53.14965,265.74825 53.14965,283.4648 0,283.4648 0,239.17342 17.71655,239.17342 17.71655,194.88205 0,194.88205 0,159.44895 17.71655,159.44895 17.71655,124.01585 0,124.01585 0,88.58275 17.71655,88.58275 17.71655,44.291375 0,44.291375 0,0 53.14965,0 53.14965,17.71655 "
         id="polygon2" />
    </g>
    <g
       transform="translate(549.56449,11.419959)"
       id="g8">
      <polygon
         style="fill:none;stroke:#ff0000;stroke-width:0.90000075"
         points="106.2993,17.71655 106.2993,0 141.7324,0 141.7324,17.71655 177.1655,17.71655 177.1655,0 212.5986,0 212.5986,17.71655 248.0317,17.71655 248.0317,0 283.4648,0 283.4648,17.71655 318.8979,17.71655 318.8979,0 354.331,0 354.331,17.71655 389.7641,17.71655 389.7641,0 425.1972,0 425.1972,17.71655 478.34685,17.71655 478.34685,0 531.4965,0 531.4965,44.291375 513.77995,44.291375 513.77995,88.58275 531.4965,88.58275 531.4965,124.01585 513.77995,124.01585 513.77995,159.44895 531.4965,159.44895 531.4965,194.88205 513.77995,194.88205 513.77995,239.17342 531.4965,239.17342 531.4965,283.4648 478.34685,283.4648 478.34685,265.74825 425.1972,265.74825 425.1972,283.4648 389.7641,283.4648 389.7641,265.74825 354.331,265.74825 354.331,283.4648 318.8979,283.4648 318.8979,265.74825 283.4648,265.74825 283.4648,283.4648 248.0317,283.4648 248.0317,265.74825 212.5986,265.74825 212.5986,283.4648 177.1655,283.4648 177.1655,265.74825 141.7324,265.74825 141.7324,283.4648 106.2993,283.4648 106.2993,265.74825 53.14965,265.74825 53.14965,283.4648 0,283.4648 0,239.17342 17.71655,239.17342 17.71655,194.88205 0,194.88205 0,159.44895 17.71655,159.44895 17.71655,124.01585 0,124.01585 0,88.58275 17.71655,88.58275 17.71655,44.291375 0,44.291375 0,0 53.14965,0 53.14965,17.71655 "
         id="polygon6" />
    </g>
    <g
       transform="translate(1081.061,11.419959)"
       id="g12">
      <polygon
         style="fill:none;stroke:#ff0000;stroke-width:0.90000075"
         points="88.58275,17.71655 88.58275,0 124.01585,0 124.01585,17.71655 159.44895,17.71655 159.44895,0 194.88205,0 194.88205,17.71655 239.17342,17.71655 239.17342,0 265.74825,0 265.74825,44.291375 283.4648,44.291375 283.4648,88.58275 265.74825,88.58275 265.74825,124.01585 283.4648,124.01585 283.4648,159.44895 265.74825,159.44895 265.74825,194.88205 283.4648,194.88205 283.4648,239.17342 265.74825,239.17342 265.74825,283.4648 239.17342,283.4648 239.17342,265.74825 194.88205,265.74825 194.88205,283.4648 159.44895,283.4648 159.44895,265.74825 124.01585,265.74825 124.01585,283.4648 88.58275,283.4648 88.58275,265.74825 44.291375,265.74825 44.291375,283.4648 17.71655,283.4648 17.71655,239.17342 0,239.17342 0,194.88205 17.71655,194.88205 17.71655,159.44895 0,159.44895 0,124.01585 17.71655,124.01585 17.71655,88.58275 0,88.58275 0,44.291375 17.71655,44.291375 17.71655,0 44.291375,0 44.291375,17.71655 "
         id="polygon10" />
    </g>
    <g
       transform="translate(1081.061,294.88476)"
       id="g16">
      <polygon
         style="fill:none;stroke:#ff0000;stroke-width:0.90000075"
         points="88.58275,17.71655 88.58275,0 124.01585,0 124.01585,17.71655 159.44895,17.71655 159.44895,0 194.88205,0 194.88205,17.71655 239.17342,17.71655 239.17342,0 265.74825,0 265.74825,44.291375 283.4648,44.291375 283.4648,88.58275 265.74825,88.58275 265.74825,124.01585 283.4648,124.01585 283.4648,159.44895 265.74825,159.44895 265.74825,194.88205 283.4648,194.88205 283.4648,239.17342 265.74825,239.17342 265.74825,283.4648 239.17342,283.4648 239.17342,265.74825 194.88205,265.74825 194.88205,283.4648 159.44895,283.4648 159.44895,265.74825 124.01585,265.74825 124.01585,283.4648 88.58275,283.4648 88.58275,265.74825 44.291375,265.74825 44.291375,283.4648 17.71655,283.4648 17.71655,239.17342 0,239.17342 0,194.88205 17.71655,194.88205 17.71655,159.44895 0,159.44895 0,124.01585 17.71655,124.01585 17.71655,88.58275 0,88.58275 0,44.291375 17.71655,44.291375 17.71655,0 44.291375,0 44.291375,17.71655 "
         id="polygon14" />
    </g>
    <g
       transform="translate(18.067995,294.88476)"
       id="g20">
      <polygon
         style="fill:none;stroke:#ff0000;stroke-width:0.90000075"
         points="106.2993,0 106.2993,17.71655 141.7324,17.71655 141.7324,0 177.1655,0 177.1655,17.71655 212.5986,17.71655 212.5986,0 248.0317,0 248.0317,17.71655 283.4648,17.71655 283.4648,0 318.8979,0 318.8979,17.71655 354.331,17.71655 354.331,0 389.7641,0 389.7641,17.71655 425.1972,17.71655 425.1972,0 478.34685,0 478.34685,17.71655 513.77995,17.71655 513.77995,44.291375 531.4965,44.291375 531.4965,88.58275 513.77995,88.58275 513.77995,124.01585 531.4965,124.01585 531.4965,159.44895 513.77995,159.44895 513.77995,194.88205 531.4965,194.88205 531.4965,239.17342 513.77995,239.17342 513.77995,265.74825 478.34685,265.74825 478.34685,283.4648 425.1972,283.4648 425.1972,265.74825 389.7641,265.74825 389.7641,283.4648 354.331,283.4648 354.331,265.74825 318.8979,265.74825 318.8979,283.4648 283.4648,283.4648 283.4648,265.74825 248.0317,265.74825 248.0317,283.4648 212.5986,283.4648 212.5986,265.74825 177.1655,265.74825 177.1655,283.4648 141.7324,283.4648 141.7324,265.74825 106.2993,265.74825 106.2993,283.4648 53.14965,283.4648 53.14965,265.74825 17.71655,265.74825 17.71655,239.17342 0,239.17342 0,194.88205 17.71655,194.88205 17.71655,159.44895 0,159.44895 0,124.01585 17.71655,124.01585 17.71655,88.58275 0,88.58275 0,44.291375 17.71655,44.291375 17.71655,17.71655 53.14965,17.71655 53.14965,0 "
         id="polygon18" />
    </g>
    <g
       transform="translate(549.56449,294.88476)"
       id="g24">
      <polygon
         style="fill:none;stroke:#ff0000;stroke-width:0.90000075"
         points="106.2993,0 106.2993,17.71655 141.7324,17.71655 141.7324,0 177.1655,0 177.1655,17.71655 212.5986,17.71655 212.5986,0 248.0317,0 248.0317,17.71655 283.4648,17.71655 283.4648,0 318.8979,0 318.8979,17.71655 354.331,17.71655 354.331,0 389.7641,0 389.7641,17.71655 425.1972,17.71655 425.1972,0 478.34685,0 478.34685,17.71655 513.77995,17.71655 513.77995,44.291375 531.4965,44.291375 531.4965,88.58275 513.77995,88.58275 513.77995,124.01585 531.4965,124.01585 531.4965,159.44895 513.77995,159.44895 513.77995,194.88205 531.4965,194.88205 531.4965,239.17342 513.77995,239.17342 513.77995,265.74825 478.34685,265.74825 478.34685,283.4648 425.1972,283.4648 425.1972,265.74825 389.7641,265.74825 389.7641,283.4648 354.331,283.4648 354.331,265.74825 318.8979,265.74825 318.8979,283.4648 283.4648,283.4648 283.4648,265.74825 248.0317,265.74825 248.0317,283.4648 212.5986,283.4648 212.5986,265.74825 177.1655,265.74825 177.1655,283.4648 141.7324,283.4648 141.7324,265.74825 106.2993,265.74825 106.2993,283.4648 53.14965,283.4648 53.14965,265.74825 17.71655,265.74825 17.71655,239.17342 0,239.17342 0,194.88205 17.71655,194.88205 17.71655,159.44895 0,159.44895 0,124.01585 17.71655,124.01585 17.71655,88.58275 0,88.58275 0,44.291375 17.71655,44.291375 17.71655,17.71655 53.14965,17.71655 53.14965,0 "
         id="polygon22" />
    </g>
  </g>
  <g
     inkscape:groupmode="layer"
     id="layer2"
     inkscape:label="Ouvert"
     style="display:inline">
    <text
       xml:space="preserve"
       style="font-style:normal;font-variant:normal;font-weight:bold;font-stretch:normal;font-size:120.22695923px;line-height:125%;font-family:'Courier New';-inkscape-font-specification:'Courier New Bold';letter-spacing:0px;word-spacing:0px;fill:#000000;fill-opacity:1;stroke:none;stroke-width:1.25236416px;stroke-linecap:butt;stroke-linejoin:miter;stroke-opacity:1"
       x="68.810768"
       y="188.75667"
       id="text8444"><tspan
         sodipodi:role="line"
         id="tspan8442"
         x="68.810768"
         y="188.75667"
         style="font-style:normal;font-variant:normal;font-weight:bold;font-stretch:normal;font-family:'Courier New';-inkscape-font-specification:'Courier New Bold';stroke-width:1.25236416px">OUVERT</tspan></text>
    <rect
       style="opacity:1;fill:none;fill-opacity:1;stroke:#ff00ff;stroke-width:0.90000069;stroke-miterlimit:4;stroke-dasharray:none;stroke-dashoffset:24.07902336;stroke-opacity:1"
       id="rect4503"
       width="531.49652"
       height="283.46481"
       x="18.067997"
       y="11.419959" />
  </g>
  <g
     inkscape:groupmode="layer"
     id="layer3"
     inkscape:label="fermé"
     style="display:inline">
    <rect
       style="opacity:1;fill:none;fill-opacity:1;stroke:#ff00ff;stroke-width:0.90000069;stroke-miterlimit:4;stroke-dasharray:none;stroke-dashoffset:24.07902336;stroke-opacity:1"
       id="rect4503-6"
       width="531.49652"
       height="283.46481"
       x="549.56451"
       y="11.419946" />
    <text
       xml:space="preserve"
       style="font-style:normal;font-variant:normal;font-weight:bold;font-stretch:normal;font-size:120.22695923px;line-height:125%;font-family:'Courier New';-inkscape-font-specification:'Courier New Bold';letter-spacing:0px;word-spacing:0px;fill:#000000;fill-opacity:1;stroke:none;stroke-width:1.25236416px;stroke-linecap:butt;stroke-linejoin:miter;stroke-opacity:1"
       x="634.97235"
       y="151.35187"
       id="text8444-0-5"><tspan
         sodipodi:role="line"
         id="tspan8442-3-8"
         x="634.97235"
         y="151.35187"
         style="font-style:normal;font-variant:normal;font-weight:bold;font-stretch:normal;font-family:'Courier New';-inkscape-font-specification:'Courier New Bold';stroke-width:1.25236416px">FERMÉ</tspan></text>
    <text
       xml:space="preserve"
       style="font-style:normal;font-variant:normal;font-weight:bold;font-stretch:normal;font-size:94.25396729px;line-height:125%;font-family:'Courier New';-inkscape-font-specification:'Courier New Bold';letter-spacing:0px;word-spacing:0px;fill:#000000;fill-opacity:1;stroke:none;stroke-width:0.98181224px;stroke-linecap:butt;stroke-linejoin:miter;stroke-opacity:1"
       x="619.09607"
       y="247.8606"
       id="text8444-0-2-2"><tspan
         sodipodi:role="line"
         id="tspan8442-3-6-4"
         x="619.09607"
         y="247.8606"
         style="font-style:normal;font-variant:normal;font-weight:bold;font-stretch:normal;font-family:'Courier New';-inkscape-font-specification:'Courier New Bold';stroke-width:0.98181224px">Réouvre</tspan></text>
  </g>
</svg>
