<?xml version="1.0" encoding="UTF-8" standalone="no"?>
<svg
   xmlns:dc="http://purl.org/dc/elements/1.1/"
   xmlns:cc="http://creativecommons.org/ns#"
   xmlns:rdf="http://www.w3.org/1999/02/22-rdf-syntax-ns#"
   xmlns:svg="http://www.w3.org/2000/svg"
   xmlns="http://www.w3.org/2000/svg"
   xmlns:sodipodi="http://sodipodi.sourceforge.net/DTD/sodipodi-0.dtd"
   xmlns:inkscape="http://www.inkscape.org/namespaces/inkscape"
   version="1.1"
   width="422.7mm"
   height="192.7mm"
   viewBox=" 0 0 1497.7571369999998 682.795837"
   id="svg26"
   sodipodi:docname="boxinsidefermeouvert.svg"
   inkscape:version="0.92.1 r15371">
  <metadata
     id="metadata32">
    <rdf:RDF>
      <cc:Work
         rdf:about="">
        <dc:format>image/svg+xml</dc:format>
        <dc:type
           rdf:resource="http://purl.org/dc/dcmitype/StillImage" />
      </cc:Work>
    </rdf:RDF>
  </metadata>
  <defs
     id="defs30" />
  <sodipodi:namedview
     pagecolor="#ffffff"
     bordercolor="#666666"
     borderopacity="1"
     objecttolerance="10"
     gridtolerance="10"
     guidetolerance="10"
     inkscape:pageopacity="0"
     inkscape:pageshadow="2"
     inkscape:window-width="1920"
     inkscape:window-height="1001"
     id="namedview28"
     showgrid="false"
     inkscape:zoom="0.55583154"
     inkscape:cx="649.98775"
     inkscape:cy="197.56384"
     inkscape:window-x="-9"
     inkscape:window-y="-9"
     inkscape:window-maximized="1"
     inkscape:current-layer="svg26" />
  <!-- Front-->
  <path
     style="fill:none;stroke:#ff0000;stroke-width:0.95999998"
     d="M 24 42.800781 L 24 80.693359 L 42.898438 80.693359 L 42.898438 137.38672 L 24 137.38672 L 24 175.18164 L 42.898438 175.18164 L 42.898438 212.97656 L 24 212.97656 L 24 250.77148 L 42.898438 250.77148 L 42.898438 307.46484 L 24 307.46484 L 24 364.1582 L 71.244141 364.1582 L 71.244141 345.25977 L 118.48828 345.25977 L 118.48828 364.1582 L 156.2832 364.1582 L 156.2832 345.25977 L 194.07812 345.25977 L 194.07812 364.1582 L 231.87305 364.1582 L 231.87305 345.25977 L 269.66992 345.25977 L 269.66992 364.1582 L 307.46484 364.1582 L 307.46484 345.25977 L 345.25977 345.25977 L 345.25977 364.1582 L 383.05469 364.1582 L 383.05469 345.25977 L 420.84961 345.25977 L 420.84961 364.1582 L 458.64648 364.1582 L 458.64648 345.25977 L 496.44141 345.25977 L 496.44141 364.1582 L 534.23633 364.1582 L 534.23633 345.25977 L 581.48047 345.25977 L 581.48047 364.1582 L 628.72461 364.1582 L 628.72461 307.46484 L 609.82617 307.46484 L 609.82617 250.77148 L 628.72461 250.77148 L 628.72461 212.97656 L 609.82617 212.97656 L 609.82617 175.18164 L 628.72461 175.18164 L 628.72461 137.38672 L 609.82617 137.38672 L 609.82617 80.693359 L 628.72461 80.693359 L 628.72461 42.800781 L 581.48047 42.800781 L 581.48047 42.898438 L 534.23633 42.898438 L 534.23633 42.800781 L 496.44141 42.800781 L 496.44141 42.898438 L 458.64648 42.898438 L 458.64648 42.800781 L 420.84961 42.800781 L 420.84961 42.898438 L 383.05469 42.898438 L 383.05469 42.800781 L 345.25977 42.800781 L 345.25977 42.898438 L 307.46484 42.898438 L 307.46484 42.800781 L 269.66992 42.800781 L 269.66992 42.898438 L 231.87305 42.898438 L 231.87305 42.800781 L 194.07812 42.800781 L 194.07812 42.898438 L 156.2832 42.898438 L 156.2832 42.800781 L 118.48828 42.800781 L 118.48828 42.898438 L 71.244141 42.898438 L 71.244141 42.800781 L 24 42.800781 z "
     transform="scale(0.93750078)"
     id="polygon2" />
  <!-- Back-->
  <path
     style="fill:none;stroke:#ff0000;stroke-width:0.95999998"
     d="M 628.72461 42.800781 L 628.72461 80.693359 L 647.62109 80.693359 L 647.62109 137.38672 L 628.72461 137.38672 L 628.72461 175.18164 L 647.62109 175.18164 L 647.62109 212.97656 L 628.72461 212.97656 L 628.72461 250.77148 L 647.62109 250.77148 L 647.62109 307.46484 L 628.72461 307.46484 L 628.72461 364.1582 L 675.96875 364.1582 L 675.96875 345.25977 L 723.21289 345.25977 L 723.21289 364.1582 L 761.00781 364.1582 L 761.00781 345.25977 L 798.80273 345.25977 L 798.80273 364.1582 L 836.59766 364.1582 L 836.59766 345.25977 L 874.39453 345.25977 L 874.39453 364.1582 L 912.18945 364.1582 L 912.18945 345.25977 L 949.98438 345.25977 L 949.98438 364.1582 L 987.7793 364.1582 L 987.7793 345.25977 L 1025.5742 345.25977 L 1025.5742 364.1582 L 1063.3691 364.1582 L 1063.3691 345.25977 L 1101.166 345.25977 L 1101.166 364.1582 L 1138.9609 364.1582 L 1138.9609 345.25977 L 1186.2051 345.25977 L 1186.2051 364.1582 L 1233.4492 364.1582 L 1233.4492 307.46484 L 1214.5508 307.46484 L 1214.5508 250.77148 L 1233.4492 250.77148 L 1233.4492 212.97656 L 1214.5508 212.97656 L 1214.5508 175.18164 L 1233.4492 175.18164 L 1233.4492 137.38672 L 1214.5508 137.38672 L 1214.5508 80.693359 L 1233.4492 80.693359 L 1233.4492 42.800781 L 1186.2051 42.800781 L 1186.2051 42.898438 L 1138.9609 42.898438 L 1138.9609 42.800781 L 1101.166 42.800781 L 1101.166 42.898438 L 1063.3691 42.898438 L 1063.3691 42.800781 L 1025.5742 42.800781 L 1025.5742 42.898438 L 987.7793 42.898438 L 987.7793 42.800781 L 949.98438 42.800781 L 949.98438 42.898438 L 912.18945 42.898438 L 912.18945 42.800781 L 874.39453 42.800781 L 874.39453 42.898438 L 836.59766 42.898438 L 836.59766 42.800781 L 798.80273 42.800781 L 798.80273 42.898438 L 761.00781 42.898438 L 761.00781 42.800781 L 723.21289 42.800781 L 723.21289 42.898438 L 675.96875 42.898438 L 675.96875 42.800781 L 628.72461 42.800781 z "
     transform="scale(0.93750078)"
     id="polygon6" />
  <!-- Left-->
  <path
     style="fill:none;stroke:#ff0000;stroke-width:0.95999998"
     d="M 1252.3457 42.800781 L 1252.3457 80.693359 L 1233.4492 80.693359 L 1233.4492 137.38672 L 1252.3457 137.38672 L 1252.3457 175.18164 L 1233.4492 175.18164 L 1233.4492 212.97656 L 1252.3457 212.97656 L 1252.3457 250.77148 L 1233.4492 250.77148 L 1233.4492 307.46484 L 1252.3457 307.46484 L 1252.3457 364.1582 L 1290.1426 364.1582 L 1290.1426 345.25977 L 1346.834 345.25977 L 1346.834 364.1582 L 1384.6309 364.1582 L 1384.6309 345.25977 L 1422.4258 345.25977 L 1422.4258 364.1582 L 1460.2207 364.1582 L 1460.2207 345.25977 L 1516.9141 345.25977 L 1516.9141 364.1582 L 1554.709 364.1582 L 1554.709 307.46484 L 1573.6055 307.46484 L 1573.6055 250.77148 L 1554.709 250.77148 L 1554.709 212.97656 L 1573.6055 212.97656 L 1573.6055 175.18164 L 1554.709 175.18164 L 1554.709 137.38672 L 1573.6055 137.38672 L 1573.6055 80.693359 L 1554.709 80.693359 L 1554.709 42.800781 L 1516.9141 42.800781 L 1516.9141 42.898438 L 1460.2207 42.898438 L 1460.2207 42.800781 L 1422.4258 42.800781 L 1422.4258 42.898438 L 1384.6309 42.898438 L 1384.6309 42.800781 L 1346.834 42.800781 L 1346.834 42.898438 L 1290.1426 42.898438 L 1290.1426 42.800781 L 1252.3457 42.800781 z "
     transform="scale(0.93750078)"
     id="polygon10" />
  <!-- Right-->
  <!-- Top-->
  <!-- Bottom-->
  <path
     transform="translate(589.42962,341.39792)"
     style="fill:none;stroke:#ff0000;stroke-width:0.90000075"
     d="M 44.291375,0 H 88.58275 v 17.71655 h 35.4331 V 0 h 35.4331 v 17.71655 h 35.4331 V 0 h 35.4331 v 17.71655 h 35.4331 V 0 h 35.4331 v 17.71655 h 35.4331 V 0 h 35.4331 v 17.71655 h 35.4331 V 0 h 35.4331 v 17.71655 h 35.4331 V 0 h 44.29137 v 17.71655 h 26.57483 v 35.4331 h 17.71655 v 53.14965 h -17.71655 v 35.4331 h 17.71655 v 35.4331 h -17.71655 v 35.4331 h 17.71655 v 53.14965 h -17.71655 v 35.4331 h -26.57483 v 17.71655 h -44.29137 v -17.71655 h -35.4331 v 17.71655 h -35.4331 v -17.71655 h -35.4331 v 17.71655 h -35.4331 v -17.71655 h -35.4331 v 17.71655 h -35.4331 v -17.71655 h -35.4331 v 17.71655 h -35.4331 v -17.71655 h -35.4331 v 17.71655 h -35.4331 V 301.18135 H 88.58275 V 318.8979 H 44.291375 V 301.18135 H 17.71655 v -35.4331 H 0 V 212.5986 H 17.71655 V 177.1655 H 0 V 141.7324 H 17.71655 V 106.2993 H 0 V 53.14965 h 17.71655 v -35.4331 h 26.574825 z"
     id="polygon22" />
  <path
     id="path8550"
     d="m 1174.0751,341.30704 v 35.52432 h -17.7155 v 53.15007 h 17.7155 v 35.43277 h -17.7155 v 35.43277 h 17.7155 v 35.43277 h -17.7155 v 53.15006 h 17.7155 v 53.15007 h 35.4346 v -17.71729 h 53.1482 v 17.71729 h 35.4346 v -17.71729 h 35.4328 v 17.71729 h 35.4327 v -17.71729 h 53.1502 v 17.71729 h 35.4327 V 589.4298 h 17.7155 v -53.15006 h -17.7155 v -35.43277 h 17.7155 V 465.4142 h -17.7155 v -35.43277 h 17.7155 v -53.15007 h -17.7155 v -35.52432 h -35.4327 v 0.0916 h -53.1502 v -0.0916 h -35.4327 v 0.0916 h -35.4328 v -0.0916 h -35.4346 v 0.0916 h -53.1482 v -0.0916 z"
     style="fill:none;stroke:#ff0000;stroke-width:0.90000075"
     inkscape:connector-curvature="0" />
</svg>
