<?xml version="1.0" encoding="UTF-8" standalone="no"?>
<svg
   xmlns:dc="http://purl.org/dc/elements/1.1/"
   xmlns:cc="http://creativecommons.org/ns#"
   xmlns:rdf="http://www.w3.org/1999/02/22-rdf-syntax-ns#"
   xmlns:svg="http://www.w3.org/2000/svg"
   xmlns="http://www.w3.org/2000/svg"
   xmlns:sodipodi="http://sodipodi.sourceforge.net/DTD/sodipodi-0.dtd"
   xmlns:inkscape="http://www.inkscape.org/namespaces/inkscape"
   version="1.1"
   width="182.7mm"
   height="92.7mm"
   viewBox=" 0 0 647.3627369999999 328.464837"
   id="svg26"
   sodipodi:docname="boxinsidehoraire.svg"
   inkscape:version="0.92.0 r15299">
  <metadata
     id="metadata32">
    <rdf:RDF>
      <cc:Work
         rdf:about="">
        <dc:format>image/svg+xml</dc:format>
        <dc:type
           rdf:resource="http://purl.org/dc/dcmitype/StillImage" />
      </cc:Work>
    </rdf:RDF>
  </metadata>
  <defs
     id="defs30" />
  <sodipodi:namedview
     pagecolor="#ffffff"
     bordercolor="#666666"
     borderopacity="1"
     objecttolerance="10"
     gridtolerance="10"
     guidetolerance="10"
     inkscape:pageopacity="0"
     inkscape:pageshadow="2"
     inkscape:window-width="1920"
     inkscape:window-height="1018"
     id="namedview28"
     showgrid="false"
     inkscape:zoom="1.285988"
     inkscape:cx="89.305992"
     inkscape:cy="185.94361"
     inkscape:window-x="-8"
     inkscape:window-y="-8"
     inkscape:window-maximized="1"
     inkscape:current-layer="svg26" />
  <!-- Front-->
  <!-- Back-->
  <path
     style="fill:none;stroke:#ff0000;stroke-width:0.90000075"
     d="m 40.217321,57.932547 h 22.14569 v -17.71655 h 17.71655 v 17.71655 h 17.71655 v -17.71655 h 17.716549 v 17.71655 h 17.71654 v -17.71655 h 17.71655 v 17.71655 h 17.71655 v -17.71655 h 17.71655 v 17.71655 h 17.71656 v -17.71655 h 17.71654 v 17.71655 h 22.14569 v -17.71655 h 22.14569 v 22.14568 h -17.71655 v 22.14569 h 17.71655 v 17.716553 h -17.71655 v 17.71655 h 17.71655 v 17.71655 h -17.71655 v 22.14569 h 17.71655 V 181.9484 H 243.95764 V 164.23185 H 221.81195 V 181.9484 H 204.09541 V 164.23185 H 186.37885 V 181.9484 H 168.6623 V 164.23185 H 150.94575 V 181.9484 H 133.2292 V 164.23185 H 115.51266 V 181.9484 H 97.796111 v -17.71655 h -17.71655 v 17.71655 h -17.71655 v -17.71655 h -22.14569 v 17.71655 h -22.14569 v -22.14569 h 17.71655 v -22.14569 h -17.71655 v -17.71655 h 17.71655 V 102.22392 H 18.071631 V 84.507367 h 17.71655 v -22.14569 h -17.71655 v -22.14568 h 22.14569 z"
     id="polygon6"
     inkscape:connector-curvature="0" />
  <!-- Left-->
  <path
     style="fill:none;stroke:#ff0000;stroke-width:0.90000075"
     d="m 271.72833,181.9489 h 4.42933 v -17.7173 h 22.1448 v 17.7173 h 17.7173 v -17.7173 h 22.14479 v 17.7173 h 4.42933 v -22.1448 h 17.7173 v -22.14662 h -17.7173 v -17.7173 h 17.7173 v -17.71547 h -17.7173 V 84.507417 h 17.7173 v -22.14479 h -17.7173 v -22.14663 h -4.42933 v 17.7173 h -22.14479 v -17.7173 h -17.7173 v 17.7173 h -22.1448 v -17.7173 h -4.42933 v 22.14663 22.14479 17.717293 17.71547 17.7173 22.14662 z"
     id="polygon10"
     inkscape:connector-curvature="0" />
  <!-- Right-->
  <path
     style="fill:none;stroke:#ff0000;stroke-width:0.90000075"
     d="m 365.25685,177.51957 h 4.42933 V 159.8041 h 22.14479 v 17.71547 h 17.7173 V 159.8041 h 22.14479 v 17.71547 h 4.42933 v -22.14479 h 17.7173 v -22.14663 h -17.7173 v -17.71548 h 17.7173 V 97.79538 h -17.7173 V 80.079908 h 17.7173 v -22.14662 h -17.7173 v -22.1448 h -4.42933 v 17.71547 h -22.14479 v -17.71547 h -17.7173 v 17.71547 h -22.14479 v -17.71547 h -4.42933 v 22.1448 22.14662 17.715472 17.71729 17.71548 22.14663 z"
     id="polygon14"
     inkscape:connector-curvature="0" />
  <!-- Top-->
  <path
     style="fill:none;stroke:#ff0000;stroke-width:0.95999998"
     d="M 42.898438 194.07812 L 42.898438 198.80273 L 24 198.80273 L 24 222.42578 L 42.898438 222.42578 L 42.898438 241.32227 L 24 241.32227 L 24 264.94531 L 42.898438 264.94531 L 42.898438 269.66992 L 47.621094 269.66992 L 47.621094 288.56641 L 71.244141 288.56641 L 71.244141 269.66992 L 90.142578 269.66992 L 90.142578 288.56641 L 109.03906 288.56641 L 109.03906 269.66992 L 127.9375 269.66992 L 127.9375 288.56641 L 146.83398 288.56641 L 146.83398 269.66992 L 165.73242 269.66992 L 165.73242 288.56641 L 184.63086 288.56641 L 184.63086 269.66992 L 203.52734 269.66992 L 203.52734 288.56641 L 222.42578 288.56641 L 222.42578 269.66992 L 241.32227 269.66992 L 241.32227 288.56641 L 264.94531 288.56641 L 264.94531 269.66992 L 269.66992 269.66992 L 269.66992 264.94531 L 288.56641 264.94531 L 288.56641 241.32227 L 269.66992 241.32227 L 269.66992 222.42578 L 288.56641 222.42578 L 288.56641 198.80273 L 269.66992 198.80273 L 269.66992 194.07812 L 264.94531 194.07812 L 241.32227 194.07812 L 222.42578 194.07812 L 203.52734 194.07812 L 184.63086 194.07812 L 165.73242 194.07812 L 146.83398 194.07812 L 127.9375 194.07812 L 109.03906 194.07812 L 90.142578 194.07812 L 71.244141 194.07812 L 47.621094 194.07812 L 42.898438 194.07812 z "
     transform="scale(0.93750082)"
     id="polygon18" />
  <!-- Bottom-->
  <path
     style="fill:none;stroke:#ff0000;stroke-width:0.95999998"
     d="M 307.46484 194.07812 L 307.46484 198.80273 L 288.56641 198.80273 L 288.56641 222.42578 L 307.46484 222.42578 L 307.46484 241.32227 L 288.56641 241.32227 L 288.56641 264.94531 L 307.46484 264.94531 L 307.46484 269.66992 L 312.18945 269.66992 L 312.18945 288.56641 L 335.81055 288.56641 L 335.81055 269.66992 L 354.70898 269.66992 L 354.70898 288.56641 L 373.60547 288.56641 L 373.60547 269.66992 L 392.50391 269.66992 L 392.50391 288.56641 L 411.40234 288.56641 L 411.40234 269.66992 L 430.29883 269.66992 L 430.29883 288.56641 L 449.19727 288.56641 L 449.19727 269.66992 L 468.09375 269.66992 L 468.09375 288.56641 L 486.99219 288.56641 L 486.99219 269.66992 L 505.89062 269.66992 L 505.89062 288.56641 L 529.51172 288.56641 L 529.51172 269.66992 L 534.23633 269.66992 L 534.23633 264.94531 L 553.13477 264.94531 L 553.13477 241.32227 L 534.23633 241.32227 L 534.23633 222.42578 L 553.13477 222.42578 L 553.13477 198.80273 L 534.23633 198.80273 L 534.23633 194.07812 L 529.51172 194.07812 L 505.89062 194.07812 L 486.99219 194.07812 L 468.09375 194.07812 L 449.19727 194.07812 L 430.29883 194.07812 L 411.40234 194.07812 L 392.50391 194.07812 L 373.60547 194.07812 L 354.70898 194.07812 L 335.81055 194.07812 L 312.18945 194.07812 L 307.46484 194.07812 z "
     transform="scale(0.93750082)"
     id="polygon22" />
</svg>
