<?xml version="1.0" encoding="UTF-8" standalone="no"?>
<svg
   xmlns:dc="http://purl.org/dc/elements/1.1/"
   xmlns:cc="http://creativecommons.org/ns#"
   xmlns:rdf="http://www.w3.org/1999/02/22-rdf-syntax-ns#"
   xmlns:svg="http://www.w3.org/2000/svg"
   xmlns="http://www.w3.org/2000/svg"
   xmlns:sodipodi="http://sodipodi.sourceforge.net/DTD/sodipodi-0.dtd"
   xmlns:inkscape="http://www.inkscape.org/namespaces/inkscape"
   version="1.1"
   width="242.7mm"
   height="172.7mm"
   viewBox=" 0 0 859.961337 611.929637"
   id="svg26"
   sodipodi:docname="boxinsidejour.svg"
   inkscape:version="0.92.1 r15371">
  <metadata
     id="metadata32">
    <rdf:RDF>
      <cc:Work
         rdf:about="">
        <dc:format>image/svg+xml</dc:format>
        <dc:type
           rdf:resource="http://purl.org/dc/dcmitype/StillImage" />
      </cc:Work>
    </rdf:RDF>
  </metadata>
  <defs
     id="defs30" />
  <sodipodi:namedview
     pagecolor="#ffffff"
     bordercolor="#666666"
     borderopacity="1"
     objecttolerance="10"
     gridtolerance="10"
     guidetolerance="10"
     inkscape:pageopacity="0"
     inkscape:pageshadow="2"
     inkscape:window-width="1920"
     inkscape:window-height="1001"
     id="namedview28"
     showgrid="false"
     inkscape:zoom="0.36156148"
     inkscape:cx="394.70964"
     inkscape:cy="238.35744"
     inkscape:window-x="-9"
     inkscape:window-y="-9"
     inkscape:window-maximized="1"
     inkscape:current-layer="svg26" />
  <!-- Front-->
  <!-- Back-->
  <path
     transform="translate(305.96482,22.500018)"
     style="fill:none;stroke:#ff0000;stroke-width:0.90000075"
     d="m 60.23627,17.71655 h 60.23627 V 0 h 42.51972 v 17.71655 h 60.23627 V 0 h 60.23627 v 60.23627 h -17.71655 v 60.23627 h 17.71655 v 42.51972 h -17.71655 v 60.23627 H 283.4648 V 283.4648 H 223.22853 V 265.74825 H 162.99226 V 283.4648 H 120.47254 V 265.74825 H 60.23627 V 283.4648 H 0 V 223.22853 H 17.71655 V 162.99226 H 0 V 120.47254 H 17.71655 V 60.23627 H 0 V 0 h 60.23627 z"
     id="polygon6" />
  <!-- Left-->
  <path
     style="fill:none;stroke:#ff0000;stroke-width:0.96000004"
     d="M 628.72461 345.25977 L 628.72461 379.27539 L 647.62305 379.27539 L 647.62305 432.18945 L 628.72461 432.18945 L 628.72461 485.10156 L 647.62305 485.10156 L 647.62305 538.01562 L 628.72461 538.01562 L 628.72461 572.03125 L 692.97656 572.03125 L 692.97656 590.92969 L 757.22852 590.92969 L 757.22852 572.03125 L 802.58203 572.03125 L 802.58203 590.92969 L 866.83398 590.92969 L 866.83398 572.03125 L 931.08594 572.03125 L 931.08594 538.01562 L 912.18945 538.01562 L 912.18945 485.10156 L 931.08594 485.10156 L 931.08594 432.18945 L 912.18945 432.18945 L 912.18945 379.27539 L 931.08594 379.27539 L 931.08594 345.25977 L 866.83398 345.25977 L 802.58203 345.25977 L 757.22852 345.25977 L 692.97656 345.25977 L 628.72461 345.25977 z "
     transform="scale(0.93750077)"
     id="polygon10" />
  <!-- Right-->
  <path
     style="fill:none;stroke:#ff0000;stroke-width:0.96000004"
     d="M 931.08594 345.25977 L 931.08594 379.27539 L 949.98438 379.27539 L 949.98438 432.18945 L 931.08594 432.18945 L 931.08594 485.10156 L 949.98438 485.10156 L 949.98438 538.01562 L 931.08594 538.01562 L 931.08594 572.03125 L 995.33789 572.03125 L 995.33789 590.92969 L 1059.5898 590.92969 L 1059.5898 572.03125 L 1104.9453 572.03125 L 1104.9453 590.92969 L 1169.1973 590.92969 L 1169.1973 572.03125 L 1233.4492 572.03125 L 1233.4492 538.01562 L 1214.5508 538.01562 L 1214.5508 485.10156 L 1233.4492 485.10156 L 1233.4492 432.18945 L 1214.5508 432.18945 L 1214.5508 379.27539 L 1233.4492 379.27539 L 1233.4492 345.25977 L 1169.1973 345.25977 L 1104.9453 345.25977 L 1059.5898 345.25977 L 995.33789 345.25977 L 931.08594 345.25977 z "
     transform="scale(0.93750077)"
     id="polygon14" />
  <!-- Top-->
  <path
     style="fill:none;stroke:#ff0000;stroke-width:0.96000004"
     d="M 42.898438 345.25977 L 42.898438 379.27539 L 24 379.27539 L 24 432.18945 L 42.898438 432.18945 L 42.898438 485.10156 L 24 485.10156 L 24 538.01562 L 42.898438 538.01562 L 42.898438 572.03125 L 88.251953 572.03125 L 88.251953 590.92969 L 152.50391 590.92969 L 152.50391 572.03125 L 197.85742 572.03125 L 197.85742 590.92969 L 262.10938 590.92969 L 262.10938 572.03125 L 307.46484 572.03125 L 307.46484 538.01562 L 326.36133 538.01562 L 326.36133 485.10156 L 307.46484 485.10156 L 307.46484 432.18945 L 326.36133 432.18945 L 326.36133 379.27539 L 307.46484 379.27539 L 307.46484 345.25977 L 262.10938 345.25977 L 197.85742 345.25977 L 152.50391 345.25977 L 88.251953 345.25977 L 42.898438 345.25977 z "
     transform="scale(0.93750077)"
     id="polygon18" />
  <!-- Bottom-->
  <path
     style="fill:none;stroke:#ff0000;stroke-width:0.96000004"
     d="M 345.25977 345.25977 L 345.25977 379.27539 L 326.36133 379.27539 L 326.36133 432.18945 L 345.25977 432.18945 L 345.25977 485.10156 L 326.36133 485.10156 L 326.36133 538.01562 L 345.25977 538.01562 L 345.25977 572.03125 L 390.61328 572.03125 L 390.61328 590.92969 L 454.86523 590.92969 L 454.86523 572.03125 L 500.2207 572.03125 L 500.2207 590.92969 L 564.47266 590.92969 L 564.47266 572.03125 L 609.82617 572.03125 L 609.82617 538.01562 L 628.72461 538.01562 L 628.72461 485.10156 L 609.82617 485.10156 L 609.82617 432.18945 L 628.72461 432.18945 L 628.72461 379.27539 L 609.82617 379.27539 L 609.82617 345.25977 L 564.47266 345.25977 L 500.2207 345.25977 L 454.86523 345.25977 L 390.61328 345.25977 L 345.25977 345.25977 z "
     transform="scale(0.93750077)"
     id="polygon22" />
</svg>
