<?xml version="1.0" encoding="UTF-8" standalone="no"?>
<svg
   xmlns:dc="http://purl.org/dc/elements/1.1/"
   xmlns:cc="http://creativecommons.org/ns#"
   xmlns:rdf="http://www.w3.org/1999/02/22-rdf-syntax-ns#"
   xmlns:svg="http://www.w3.org/2000/svg"
   xmlns="http://www.w3.org/2000/svg"
   xmlns:sodipodi="http://sodipodi.sourceforge.net/DTD/sodipodi-0.dtd"
   xmlns:inkscape="http://www.inkscape.org/namespaces/inkscape"
   version="1.1"
   width="600mm"
   height="400mm"
   viewBox="0 0 2125.986 1417.324"
   id="svg26"
   sodipodi:docname="boxjour.svg"
   inkscape:version="0.92.1 r15371">
  <metadata
     id="metadata32">
    <rdf:RDF>
      <cc:Work
         rdf:about="">
        <dc:format>image/svg+xml</dc:format>
        <dc:type
           rdf:resource="http://purl.org/dc/dcmitype/StillImage" />
        <dc:title />
      </cc:Work>
    </rdf:RDF>
  </metadata>
  <defs
     id="defs30" />
  <sodipodi:namedview
     pagecolor="#ffffff"
     bordercolor="#666666"
     borderopacity="1"
     objecttolerance="10"
     gridtolerance="10"
     guidetolerance="10"
     inkscape:pageopacity="0"
     inkscape:pageshadow="2"
     inkscape:window-width="1920"
     inkscape:window-height="1001"
     id="namedview28"
     showgrid="false"
     inkscape:zoom="0.41161285"
     inkscape:cx="968.77886"
     inkscape:cy="293.42792"
     inkscape:window-x="-9"
     inkscape:window-y="-9"
     inkscape:window-maximized="1"
     inkscape:current-layer="layer1"
     inkscape:document-units="mm" />
  <!-- Front-->
  <!-- Back-->
  <!-- Left-->
  <!-- Right-->
  <!-- Top-->
  <!-- Bottom-->
  <g
     inkscape:groupmode="layer"
     id="layer1"
     inkscape:label="Jours"
     style="display:inline">
    <text
       xml:space="preserve"
       style="font-style:normal;font-variant:normal;font-weight:bold;font-stretch:normal;font-size:67.15773773px;line-height:125%;font-family:'Courier New';-inkscape-font-specification:'Courier New Bold';letter-spacing:0px;word-spacing:0px;fill:#000000;fill-opacity:1;stroke:none;stroke-width:0.69955975px;stroke-linecap:butt;stroke-linejoin:miter;stroke-opacity:1"
       x="292.21921"
       y="1223.3163"
       id="text8444"><tspan
         sodipodi:role="line"
         id="tspan8442"
         x="292.21921"
         y="1223.3163"
         style="font-style:normal;font-variant:normal;font-weight:bold;font-stretch:normal;font-family:'Courier New';-inkscape-font-specification:'Courier New Bold';stroke-width:0.69955975px">Lundi</tspan></text>
    <text
       xml:space="preserve"
       style="font-style:normal;font-variant:normal;font-weight:bold;font-stretch:normal;font-size:65.980896px;line-height:125%;font-family:'Courier New';-inkscape-font-specification:'Courier New Bold';letter-spacing:0px;word-spacing:0px;fill:#000000;fill-opacity:1;stroke:none;stroke-width:0.68730092px;stroke-linecap:butt;stroke-linejoin:miter;stroke-opacity:1"
       x="541.93341"
       y="1222.937"
       id="text8444-6"><tspan
         sodipodi:role="line"
         id="tspan8442-1"
         x="541.93341"
         y="1222.937"
         style="font-style:normal;font-variant:normal;font-weight:bold;font-stretch:normal;font-family:'Courier New';-inkscape-font-specification:'Courier New Bold';stroke-width:0.68730092px">Mardi</tspan></text>
    <text
       xml:space="preserve"
       style="font-style:normal;font-variant:normal;font-weight:normal;font-stretch:normal;font-size:41.00672531px;line-height:125%;font-family:'Courier New';-inkscape-font-specification:'Courier New';letter-spacing:0px;word-spacing:0px;fill:#000000;fill-opacity:1;stroke:none;stroke-width:0.42715338px;stroke-linecap:butt;stroke-linejoin:miter;stroke-opacity:1"
       x="787.73004"
       y="1215.2362"
       id="text8466"><tspan
         sodipodi:role="line"
         id="tspan8464"
         x="787.73004"
         y="1215.2362"
         style="font-style:normal;font-variant:normal;font-weight:bold;font-stretch:normal;font-family:'Courier New';-inkscape-font-specification:'Courier New Bold';stroke-width:0.42715338px">Mercredi</tspan></text>
    <text
       xml:space="preserve"
       style="font-style:normal;font-variant:normal;font-weight:bold;font-stretch:normal;font-size:67.63573456px;line-height:125%;font-family:'Courier New';-inkscape-font-specification:'Courier New Bold';letter-spacing:0px;word-spacing:0px;fill:#000000;fill-opacity:1;stroke:none;stroke-width:0.70453876px;stroke-linecap:butt;stroke-linejoin:miter;stroke-opacity:1"
       x="44.556232"
       y="1223.4637"
       id="text8444-3"><tspan
         sodipodi:role="line"
         id="tspan8442-3"
         x="44.556232"
         y="1223.4637"
         style="font-style:normal;font-variant:normal;font-weight:bold;font-stretch:normal;font-family:'Courier New';-inkscape-font-specification:'Courier New Bold';stroke-width:0.70453876px">Jeudi</tspan></text>
    <text
       xml:space="preserve"
       style="font-style:normal;font-variant:normal;font-weight:bold;font-stretch:normal;font-size:40.96883774px;line-height:125%;font-family:'Courier New';-inkscape-font-specification:'Courier New Bold';letter-spacing:0px;word-spacing:0px;fill:#000000;fill-opacity:1;stroke:none;stroke-width:0.42675868px;stroke-linecap:butt;stroke-linejoin:miter;stroke-opacity:1"
       x="1034.1696"
       y="1215.2345"
       id="text8444-2"><tspan
         sodipodi:role="line"
         id="tspan8442-8"
         x="1034.1696"
         y="1215.2345"
         style="font-style:normal;font-variant:normal;font-weight:bold;font-stretch:normal;font-family:'Courier New';-inkscape-font-specification:'Courier New Bold';stroke-width:0.42675868px">Vendredi</tspan></text>
  </g>
  <g
     inkscape:groupmode="layer"
     id="layer2"
     inkscape:label="box">
    <g
       style=""
       transform="translate(268.76006,1079.4618)"
       id="g8">
      <polygon
         style="fill:none;stroke:#ff0000;stroke-width:0.90000075"
         points="197.00804,17.71655 197.00804,0 246.26004,0 246.26004,49.252009 228.5435,49.252009 228.5435,98.504018 246.26004,98.504018 246.26004,147.75603 228.5435,147.75603 228.5435,197.00804 246.26004,197.00804 246.26004,246.26004 197.00804,246.26004 197.00804,228.5435 147.75603,228.5435 147.75603,246.26004 98.504018,246.26004 98.504018,228.5435 49.252009,228.5435 49.252009,246.26004 0,246.26004 0,197.00804 17.71655,197.00804 17.71655,147.75603 0,147.75603 0,98.504018 17.71655,98.504018 17.71655,49.252009 0,49.252009 0,0 49.252009,0 49.252009,17.71655 98.504018,17.71655 98.504018,0 147.75603,0 147.75603,17.71655 "
         id="polygon6" />
    </g>
    <g
       style=""
       transform="translate(515.02016,1079.4618)"
       id="g12">
      <polygon
         style="fill:none;stroke:#ff0000;stroke-width:0.90000075"
         points="197.00804,17.71655 197.00804,0 228.5435,0 228.5435,49.252009 246.26004,49.252009 246.26004,98.504018 228.5435,98.504018 228.5435,147.75603 246.26004,147.75603 246.26004,197.00804 228.5435,197.00804 228.5435,246.26004 197.00804,246.26004 197.00804,228.5435 147.75603,228.5435 147.75603,246.26004 98.504018,246.26004 98.504018,228.5435 49.252009,228.5435 49.252009,246.26004 17.71655,246.26004 17.71655,197.00804 0,197.00804 0,147.75603 17.71655,147.75603 17.71655,98.504018 0,98.504018 0,49.252009 17.71655,49.252009 17.71655,0 49.252009,0 49.252009,17.71655 98.504018,17.71655 98.504018,0 147.75603,0 147.75603,17.71655 "
         id="polygon10" />
    </g>
    <g
       style=""
       transform="translate(1253.8003,1079.4618)"
       id="g16">
      <polygon
         style="fill:none;stroke:#ff0000;stroke-width:0.90000075"
         points="197.00804,0 228.5435,0 228.5435,49.252009 246.26004,49.252009 246.26004,98.504018 228.5435,98.504018 228.5435,147.75603 246.26004,147.75603 246.26004,197.00804 228.5435,197.00804 228.5435,246.26004 197.00804,246.26004 197.00804,228.5435 147.75603,228.5435 147.75603,246.26004 98.504018,246.26004 98.504018,228.5435 49.252009,228.5435 49.252009,246.26004 17.71655,246.26004 17.71655,197.00804 0,197.00804 0,147.75603 17.71655,147.75603 17.71655,98.504018 0,98.504018 0,49.252009 17.71655,49.252009 17.71655,0 49.252009,0 49.252009,17.71655 98.504018,17.71655 98.504018,0 147.75603,0 147.75603,17.71655 197.00804,17.71655 "
         id="polygon14" />
    </g>
    <g
       style=""
       transform="translate(761.28016,1079.4618)"
       id="g20">
      <polygon
         style="fill:none;stroke:#ff0000;stroke-width:0.90000075"
         points="197.00804,17.71655 228.5435,17.71655 228.5435,49.252009 246.26004,49.252009 246.26004,98.504018 228.5435,98.504018 228.5435,147.75603 246.26004,147.75603 246.26004,197.00804 228.5435,197.00804 228.5435,228.5435 197.00804,228.5435 197.00804,246.26004 147.75603,246.26004 147.75603,228.5435 98.504018,228.5435 98.504018,246.26004 49.252009,246.26004 49.252009,228.5435 17.71655,228.5435 17.71655,197.00804 0,197.00804 0,147.75603 17.71655,147.75603 17.71655,98.504018 0,98.504018 0,49.252009 17.71655,49.252009 17.71655,17.71655 49.252009,17.71655 49.252009,0 98.504018,0 98.504018,17.71655 147.75603,17.71655 147.75603,0 197.00804,0 "
         id="polygon18" />
    </g>
    <g
       style=""
       transform="translate(1007.5403,1079.4618)"
       id="g24">
      <polygon
         style="fill:none;stroke:#ff0000;stroke-width:0.90000075"
         points="197.00804,17.71655 228.5435,17.71655 228.5435,49.252009 246.26004,49.252009 246.26004,98.504018 228.5435,98.504018 228.5435,147.75603 246.26004,147.75603 246.26004,197.00804 228.5435,197.00804 228.5435,228.5435 197.00804,228.5435 197.00804,246.26004 147.75603,246.26004 147.75603,228.5435 98.504018,228.5435 98.504018,246.26004 49.252009,246.26004 49.252009,228.5435 17.71655,228.5435 17.71655,197.00804 0,197.00804 0,147.75603 17.71655,147.75603 17.71655,98.504018 0,98.504018 0,49.252009 17.71655,49.252009 17.71655,17.71655 49.252009,17.71655 49.252009,0 98.504018,0 98.504018,17.71655 147.75603,17.71655 147.75603,0 197.00804,0 "
         id="polygon22" />
    </g>
    <g
       style="stroke:#ff0000;stroke-opacity:1"
       id="g8437"
       transform="translate(22.50002,1079.4618)">
      <polygon
         id="polygon8435"
         points="197.00804,0 246.26004,0 246.26004,49.252009 228.5435,49.252009 228.5435,98.504018 246.26004,98.504018 246.26004,147.75603 228.5435,147.75603 228.5435,197.00804 246.26004,197.00804 246.26004,246.26004 197.00804,246.26004 197.00804,228.5435 147.75603,228.5435 147.75603,246.26004 98.504018,246.26004 98.504018,228.5435 49.252009,228.5435 49.252009,246.26004 0,246.26004 0,197.00804 17.71655,197.00804 17.71655,147.75603 0,147.75603 0,98.504018 17.71655,98.504018 17.71655,49.252009 0,49.252009 0,0 49.252009,0 49.252009,17.71655 98.504018,17.71655 98.504018,0 147.75603,0 147.75603,17.71655 197.00804,17.71655 "
         style="fill:none;stroke:#ff0000;stroke-width:0.90000075;stroke-opacity:1" />
    </g>
  </g>
</svg>
